<?xml version="1.0" encoding="UTF-8"?>
<svg xmlns="http://www.w3.org/2000/svg" xmlns:xlink="http://www.w3.org/1999/xlink" viewBox="0 0 30 30" width="30px" height="30px">
<g id="surface56784719">
<path style=" stroke:none;fill-rule:nonzero;fill:rgb(97.254902%,93.725491%,83.137256%);fill-opacity:1;" d="M 27 2.398438 L 3 2.398438 C 2.667969 2.398438 2.398438 2.667969 2.398438 3 L 2.398438 27 C 2.398438 27.332031 2.667969 27.601562 3 27.601562 L 27 27.601562 C 27.332031 27.601562 27.601562 27.332031 27.601562 27 L 27.601562 3 C 27.601562 2.667969 27.332031 2.398438 27 2.398438 Z M 17.398438 15.867188 L 14.398438 15.867188 L 14.398438 25.199219 L 12 25.199219 L 12 15.867188 L 9 15.867188 L 9 13.800781 L 17.398438 13.800781 Z M 18.074219 24.667969 L 18.074219 22.171875 C 18.074219 22.171875 19.433594 23.199219 21.070312 23.199219 C 22.707031 23.199219 22.640625 22.128906 22.640625 21.984375 C 22.640625 20.433594 18.007812 20.433594 18.007812 16.996094 C 18.007812 12.320312 24.757812 14.164062 24.757812 14.164062 L 24.675781 16.386719 C 24.675781 16.386719 23.542969 15.632812 22.265625 15.632812 C 20.984375 15.632812 20.523438 16.238281 20.523438 16.890625 C 20.523438 18.566406 25.199219 18.398438 25.199219 21.773438 C 25.199219 26.972656 18.074219 24.667969 18.074219 24.667969 Z M 18.074219 24.667969 "/>
</g>
</svg>
