<?xml version="1.0" encoding="UTF-8"?>
<svg xmlns="http://www.w3.org/2000/svg" xmlns:xlink="http://www.w3.org/1999/xlink" viewBox="0 0 30 30" width="30px" height="30px">
<g id="surface367614617">
<path style=" stroke:none;fill-rule:nonzero;fill:rgb(96.862745%,93.725491%,83.137256%);fill-opacity:1;" d="M 14.699219 1.199219 C 9.480469 1.199219 8.398438 3.894531 8.398438 5.457031 L 8.398438 8.398438 L 14.398438 8.398438 L 14.398438 9 L 5.457031 9 C 3.476562 9 1.199219 10.5625 1.199219 15 C 1.199219 19.4375 3.476562 21 5.457031 21 L 9 21 L 9 17.398438 C 9 16.082031 10.082031 15 11.398438 15 L 18.601562 15 C 19.621094 15 20.398438 14.21875 20.398438 13.199219 L 20.398438 5.457031 C 20.398438 3.355469 18.417969 1.199219 14.699219 1.199219 Z M 12 4.199219 C 12.660156 4.199219 13.199219 4.738281 13.199219 5.398438 C 13.199219 6.0625 12.660156 6.601562 12 6.601562 C 11.339844 6.601562 10.800781 6.0625 10.800781 5.398438 C 10.800781 4.738281 11.339844 4.199219 12 4.199219 Z M 21 9 L 21 13.199219 C 21 14.519531 19.917969 15.601562 18.601562 15.601562 L 11.398438 15.601562 C 10.378906 15.601562 9.601562 16.378906 9.601562 17.398438 L 9.601562 24.542969 C 9.601562 26.644531 11.582031 28.800781 15.300781 28.800781 C 20.519531 28.800781 21.601562 26.105469 21.601562 24.542969 L 21.601562 21.601562 L 15.601562 21.601562 L 15.601562 21 L 24.542969 21 C 26.523438 21 28.800781 19.4375 28.800781 15 C 28.800781 10.5625 26.523438 9 24.542969 9 Z M 18 23.398438 C 18.660156 23.398438 19.199219 23.9375 19.199219 24.601562 C 19.199219 25.261719 18.660156 25.800781 18 25.800781 C 17.339844 25.800781 16.800781 25.261719 16.800781 24.601562 C 16.800781 23.9375 17.339844 23.398438 18 23.398438 Z M 18 23.398438 "/>
</g>
</svg>
