<?xml version="1.0" encoding="UTF-8"?>
<svg xmlns="http://www.w3.org/2000/svg" xmlns:xlink="http://www.w3.org/1999/xlink" viewBox="0 0 30 30" width="30px" height="30px">
<g id="surface62134238">
<path style=" stroke:none;fill-rule:nonzero;fill:rgb(96.862745%,93.725491%,83.137256%);fill-opacity:1;" d="M 4.6875 4.6875 L 4.6875 25.3125 L 25.3125 25.3125 L 25.3125 4.6875 Z M 6.5625 6.5625 L 23.4375 6.5625 L 23.4375 23.4375 L 6.5625 23.4375 Z M 10.3125 9.375 L 10.3125 20.617188 C 15.871094 20.617188 16.984375 20.691406 18.023438 20.382812 C 18.632812 20.195312 20.300781 19.59375 20.300781 17.484375 C 20.300781 16.546875 20.023438 14.960938 18.183594 14.566406 L 18.183594 14.539062 L 17.839844 14.539062 C 18.777344 14.117188 19.363281 13.324219 19.363281 12.152344 C 19.363281 11.851562 19.449219 9.375 16.167969 9.375 Z M 12.1875 11.25 L 15.9375 11.25 C 17.351562 11.25 17.488281 12.050781 17.488281 12.648438 C 17.488281 14.105469 15.964844 14.0625 15.9375 14.0625 L 12.1875 14.0625 Z M 12.1875 15.9375 L 16.648438 15.9375 C 18.394531 15.9375 18.425781 17.039062 18.425781 17.324219 C 18.425781 18.789062 16.917969 18.75 16.734375 18.75 L 12.1875 18.75 Z M 12.1875 15.9375 "/>
</g>
</svg>
