<?xml version="1.0" encoding="UTF-8"?>
<svg xmlns="http://www.w3.org/2000/svg" xmlns:xlink="http://www.w3.org/1999/xlink" viewBox="0 0 30 30" width="30px" height="30px">
<g id="surface56870353">
<path style=" stroke:none;fill-rule:nonzero;fill:rgb(97.254902%,93.725491%,83.137256%);fill-opacity:1;" d="M 17.921875 1.804688 C 17.855469 1.8125 17.792969 1.832031 17.734375 1.859375 C 17.21875 2.117188 16.632812 2.875 16.519531 3.027344 C 16.511719 3.035156 16.503906 3.042969 16.5 3.054688 C 15.921875 3.921875 15.613281 4.9375 15.601562 5.992188 C 15.59375 6.785156 15.746094 7.570312 16.0625 8.328125 C 16.792969 10.082031 18.3125 11.535156 20.117188 12.214844 C 20.179688 12.238281 20.238281 12.257812 20.34375 12.296875 C 20.351562 12.300781 20.441406 12.328125 20.457031 12.332031 L 20.523438 12.355469 C 20.617188 12.382812 20.710938 12.414062 20.804688 12.433594 C 21.28125 12.53125 21.746094 12.582031 22.179688 12.597656 C 22.257812 12.597656 22.332031 12.601562 22.40625 12.601562 C 25.695312 12.601562 26.96875 10.28125 27.394531 9.507812 C 27.4375 9.429688 27.464844 9.371094 27.496094 9.332031 C 27.496094 9.332031 27.496094 9.332031 27.496094 9.328125 C 27.683594 9.054688 27.613281 8.679688 27.335938 8.492188 C 27.066406 8.308594 26.691406 8.378906 26.503906 8.652344 C 25.625 9.945312 24.125 10.335938 22.046875 9.820312 C 21.894531 9.78125 21.722656 9.722656 21.574219 9.667969 C 21.378906 9.597656 21.179688 9.515625 20.996094 9.425781 C 20.632812 9.246094 20.292969 9.03125 19.984375 8.792969 C 18.15625 7.375 17.441406 4.421875 18.507812 2.71875 C 18.652344 2.492188 18.625 2.195312 18.445312 1.996094 C 18.308594 1.847656 18.113281 1.777344 17.921875 1.804688 Z M 12.605469 3 C 12.46875 2.996094 12.332031 3.042969 12.21875 3.136719 C 11.3125 3.875 10.382812 5.082031 10.34375 5.132812 C 10.339844 5.140625 10.332031 5.148438 10.328125 5.160156 C 8.6875 7.546875 8.5625 10.945312 10.011719 13.816406 C 10.238281 14.269531 10.496094 14.703125 10.773438 15.101562 L 10.855469 15.21875 C 11.085938 15.558594 11.347656 15.945312 11.679688 16.246094 C 11.792969 16.375 11.917969 16.503906 12.039062 16.625 L 12.148438 16.734375 C 12.273438 16.855469 12.398438 16.976562 12.53125 17.09375 C 12.542969 17.105469 12.554688 17.117188 12.566406 17.128906 C 12.714844 17.257812 12.863281 17.382812 13.0625 17.539062 L 13.117188 17.582031 C 13.273438 17.703125 13.429688 17.820312 13.589844 17.9375 C 13.609375 17.949219 13.625 17.960938 13.640625 17.972656 C 13.695312 18.007812 13.753906 18.042969 13.808594 18.085938 L 13.867188 18.121094 L 13.929688 18.164062 C 14.050781 18.242188 14.167969 18.316406 14.335938 18.414062 C 14.441406 18.476562 14.558594 18.542969 14.632812 18.582031 C 14.664062 18.601562 14.699219 18.617188 14.78125 18.664062 L 14.964844 18.757812 C 14.972656 18.765625 15.015625 18.78125 15.027344 18.789062 C 15.144531 18.847656 15.269531 18.90625 15.394531 18.964844 L 15.582031 19.046875 C 15.707031 19.101562 15.835938 19.152344 15.988281 19.210938 L 16.058594 19.238281 C 16.0625 19.242188 16.121094 19.261719 16.128906 19.265625 C 16.238281 19.304688 16.355469 19.34375 16.46875 19.382812 L 16.730469 19.46875 C 16.863281 19.515625 17.015625 19.566406 17.183594 19.59375 C 18 19.730469 18.792969 19.800781 19.546875 19.800781 C 19.636719 19.800781 19.726562 19.796875 19.8125 19.796875 C 26.433594 19.652344 28.15625 14.023438 28.175781 13.96875 C 28.257812 13.683594 28.121094 13.382812 27.855469 13.257812 C 27.589844 13.128906 27.269531 13.21875 27.101562 13.460938 C 25.425781 15.914062 22.25 16.949219 19.019531 16.097656 C 18.871094 16.058594 18.722656 16.015625 18.542969 15.957031 C 18.511719 15.949219 18.488281 15.941406 18.4375 15.921875 C 18.332031 15.886719 18.230469 15.851562 18.113281 15.808594 L 17.945312 15.746094 C 17.851562 15.707031 17.753906 15.671875 17.636719 15.617188 L 17.558594 15.582031 C 17.417969 15.523438 17.277344 15.453125 17.152344 15.394531 L 16.8125 15.214844 C 16.734375 15.179688 16.667969 15.136719 16.5625 15.074219 L 16.445312 15.003906 C 16.355469 14.953125 16.269531 14.898438 16.191406 14.84375 L 16.132812 14.808594 C 16.128906 14.804688 16.082031 14.773438 16.078125 14.769531 C 16.007812 14.722656 15.941406 14.679688 15.875 14.636719 C 15.730469 14.535156 15.585938 14.425781 15.417969 14.292969 L 15.355469 14.242188 C 13.808594 13.003906 12.664062 11.355469 12.125 9.585938 C 11.628906 7.960938 11.996094 5.835938 13.117188 3.898438 C 13.261719 3.648438 13.210938 3.332031 12.988281 3.144531 C 12.875 3.050781 12.742188 3 12.605469 3 Z M 6.003906 4.800781 C 5.859375 4.800781 5.714844 4.851562 5.597656 4.953125 C 4.453125 5.984375 3.59375 7.316406 3.5 7.46875 C 1.050781 11.039062 1.523438 16.585938 3.207031 19.976562 C 3.238281 20.046875 3.273438 20.117188 3.308594 20.183594 L 3.332031 20.222656 C 3.363281 20.289062 3.398438 20.359375 3.410156 20.375 C 3.429688 20.417969 3.457031 20.46875 3.46875 20.480469 C 3.496094 20.539062 3.523438 20.59375 3.578125 20.679688 L 3.769531 21.011719 C 3.796875 21.054688 3.824219 21.101562 3.835938 21.121094 C 3.871094 21.179688 3.910156 21.242188 3.953125 21.308594 L 4.046875 21.457031 C 4.074219 21.5 4.101562 21.542969 4.121094 21.566406 C 4.214844 21.710938 4.308594 21.855469 4.410156 21.992188 C 4.414062 22 4.421875 22.003906 4.425781 22.011719 L 4.460938 22.0625 C 4.546875 22.183594 4.632812 22.300781 4.710938 22.398438 L 5.054688 22.832031 C 5.058594 22.835938 5.09375 22.878906 5.097656 22.882812 L 5.148438 22.941406 C 5.25 23.066406 5.359375 23.195312 5.46875 23.316406 C 5.488281 23.335938 5.503906 23.351562 5.519531 23.371094 C 5.625 23.484375 5.734375 23.597656 5.84375 23.71875 L 5.953125 23.820312 C 6.042969 23.914062 6.132812 24.007812 6.226562 24.09375 C 6.226562 24.097656 6.269531 24.136719 6.269531 24.136719 L 6.363281 24.226562 C 6.476562 24.332031 6.59375 24.441406 6.683594 24.515625 C 6.6875 24.523438 6.769531 24.59375 6.777344 24.601562 C 6.886719 24.699219 7 24.792969 7.109375 24.882812 L 7.683594 25.339844 C 7.78125 25.410156 7.878906 25.480469 7.992188 25.5625 C 8.03125 25.589844 8.070312 25.617188 8.109375 25.644531 C 8.125 25.65625 8.144531 25.671875 8.15625 25.679688 L 8.585938 25.964844 C 8.746094 26.070312 8.902344 26.164062 9.09375 26.28125 L 9.195312 26.339844 C 9.316406 26.410156 9.4375 26.480469 9.554688 26.539062 C 9.621094 26.578125 9.6875 26.609375 9.746094 26.640625 C 9.828125 26.6875 9.917969 26.734375 10.054688 26.800781 C 10.066406 26.808594 10.164062 26.855469 10.175781 26.859375 C 10.308594 26.925781 10.449219 26.992188 10.621094 27.066406 C 10.621094 27.070312 10.679688 27.097656 10.679688 27.097656 C 10.835938 27.164062 10.992188 27.230469 11.195312 27.3125 C 11.230469 27.324219 11.261719 27.335938 11.269531 27.339844 C 11.414062 27.394531 11.566406 27.453125 11.691406 27.496094 C 11.703125 27.5 11.765625 27.527344 11.777344 27.53125 C 11.945312 27.589844 12.109375 27.640625 12.320312 27.707031 C 12.355469 27.71875 12.390625 27.730469 12.394531 27.730469 L 12.515625 27.769531 C 12.660156 27.8125 12.804688 27.859375 12.964844 27.890625 C 14.078125 28.09375 15.167969 28.199219 16.199219 28.199219 L 16.203125 28.199219 C 24.796875 28.199219 27.535156 21.285156 27.5625 21.214844 C 27.667969 20.933594 27.554688 20.621094 27.289062 20.476562 C 27.03125 20.332031 26.703125 20.398438 26.523438 20.636719 C 24.316406 23.539062 20.15625 24.617188 15.394531 23.523438 C 15.277344 23.496094 15.160156 23.464844 15.046875 23.429688 L 14.820312 23.359375 C 14.667969 23.3125 14.515625 23.261719 14.371094 23.210938 C 14.367188 23.210938 14.300781 23.183594 14.300781 23.183594 C 14.167969 23.140625 14.035156 23.089844 13.921875 23.042969 L 13.789062 22.992188 C 13.644531 22.933594 13.5 22.871094 13.359375 22.808594 L 13.277344 22.773438 C 13.152344 22.714844 13.027344 22.660156 12.90625 22.597656 C 12.898438 22.59375 12.800781 22.546875 12.792969 22.542969 C 12.707031 22.503906 12.625 22.457031 12.515625 22.398438 L 12.027344 22.136719 C 11.976562 22.105469 11.925781 22.074219 11.875 22.046875 C 11.726562 21.957031 11.574219 21.863281 11.425781 21.769531 C 11.390625 21.746094 11.359375 21.722656 11.300781 21.683594 C 11.199219 21.617188 11.097656 21.550781 10.949219 21.449219 L 10.890625 21.40625 C 10.789062 21.335938 10.691406 21.261719 10.609375 21.199219 C 10.558594 21.160156 10.507812 21.121094 10.421875 21.054688 C 10.347656 20.996094 10.273438 20.941406 10.203125 20.886719 L 10.070312 20.777344 C 9.960938 20.6875 9.859375 20.59375 9.75 20.503906 C 9.734375 20.488281 9.722656 20.480469 9.707031 20.46875 C 9.589844 20.359375 9.464844 20.246094 9.320312 20.109375 L 8.898438 19.6875 C 8.792969 19.582031 8.691406 19.472656 8.574219 19.34375 C 8.464844 19.226562 8.363281 19.105469 8.222656 18.941406 L 7.972656 18.632812 C 7.941406 18.589844 7.90625 18.542969 7.867188 18.496094 C 7.78125 18.378906 7.695312 18.265625 7.609375 18.144531 C 5.273438 14.925781 4.664062 8.214844 6.484375 5.757812 C 6.664062 5.511719 6.632812 5.164062 6.402344 4.953125 C 6.289062 4.851562 6.144531 4.800781 6.003906 4.800781 Z M 6.003906 4.800781 "/>
</g>
</svg>
